<?xml version="1.0" standalone="no"?>
<!DOCTYPE svg PUBLIC "-//W3C//DTD SVG 20010904//EN"
 "http://www.w3.org/TR/2001/REC-SVG-20010904/DTD/svg10.dtd">
<svg version="1.0" xmlns="http://www.w3.org/2000/svg"
 width="512.000000pt" height="512.000000pt" viewBox="0 0 512.000000 512.000000"
 preserveAspectRatio="xMidYMid meet">

<g transform="translate(0.000000,512.000000) scale(0.100000,-0.100000)"
fill="#000000" stroke="none">
<path d="M935 2483 c-506 -723 -921 -1320 -923 -1327 -2 -8 458 -10 1835 -9
1011 2 1846 4 1855 5 13 2 -41 87 -215 335 l-232 332 -920 3 -921 3 403 575
c222 316 428 611 459 656 l55 81 -232 331 c-128 183 -235 332 -238 331 -3 0
-420 -592 -926 -1316z"/>
<path d="M2975 3414 c-148 -212 -303 -433 -343 -492 -40 -58 -176 -253 -301
-432 -125 -179 -231 -331 -235 -337 -6 -10 89 -13 461 -13 l468 0 110 160 c61
87 112 159 116 160 3 0 211 -295 464 -655 l458 -655 469 0 469 0 -29 43 c-260
376 -1824 2603 -1830 2604 -4 1 -128 -171 -277 -383z"/>
</g>
</svg>
